<svg xmlns="http://www.w3.org/2000/svg" width="1600" height="1200" viewBox="0 0 1600 1200">
  <defs>
    <linearGradient id="bg" x1="0" y1="0" x2="1" y2="1">
      <stop offset="0" stop-color="#eef4ff"/>
      <stop offset="1" stop-color="#fff6ee"/>
    </linearGradient>
    <radialGradient id="spot" cx="30%" cy="24%" r="70%">
      <stop offset="0" stop-color="#ffb020" stop-opacity="0.26"/>
      <stop offset="1" stop-color="#ffb020" stop-opacity="0"/>
    </radialGradient>
  </defs>
  <rect width="1600" height="1200" fill="url(#bg)"/>
  <circle cx="470" cy="320" r="760" fill="url(#spot)"/>
  <circle cx="1240" cy="420" r="520" fill="#2f6fed" opacity="0.10"/>
  <path d="M0,860 C240,760 400,980 620,920 C840,860 1020,700 1320,780 C1480,822 1540,850 1600,880 L1600,1200 L0,1200 Z" fill="#14233b" opacity="0.12"/>
  <!-- Calendar-like blocks -->
  <g transform="translate(980 520)" opacity="0.42">
    <rect x="0" y="0" width="420" height="320" rx="36" fill="#14233b"/>
    <rect x="40" y="60" width="340" height="40" rx="20" fill="#ffffff" opacity="0.55"/>
    <g fill="#ffffff" opacity="0.55">
      <rect x="40" y="130" width="90" height="70" rx="18"/>
      <rect x="150" y="130" width="90" height="70" rx="18"/>
      <rect x="260" y="130" width="90" height="70" rx="18"/>
      <rect x="40" y="215" width="90" height="70" rx="18"/>
      <rect x="150" y="215" width="90" height="70" rx="18"/>
      <rect x="260" y="215" width="90" height="70" rx="18"/>
    </g>
  </g>
</svg>
